<svg width="211" height="40" viewBox="0 0 211 40" fill="none" xmlns="http://www.w3.org/2000/svg">
<mask id="mask0_681_2208" style="mask-type:alpha" maskUnits="userSpaceOnUse" x="0" y="0" width="40" height="40">
<path d="M0 33.6719V0.078125L33.75 0L40 6.32812V40H6.25L0 33.6719Z" fill="white"/>
</mask>
<g mask="url(#mask0_681_2208)">
<g filter="url(#filter0_f_681_2208)">
<rect x="8.77734" y="-25.7812" width="46.7141" height="46.7141" rx="23.3571" transform="rotate(7.1205 8.77734 -25.7812)" fill="#95D67D"/>
</g>
<g filter="url(#filter1_f_681_2208)">
<rect x="-24.1289" y="-3.54883" width="48.6243" height="48.6243" rx="24.3122" transform="rotate(7.1205 -24.1289 -3.54883)" fill="#87D3D2"/>
</g>
<g filter="url(#filter2_f_681_2208)">
<rect x="16.9019" y="11.6006" width="48.6243" height="48.6243" rx="24.3122" transform="rotate(7.1205 16.9019 11.6006)" fill="#E28585" fill-opacity="0.66"/>
</g>
</g>
<mask id="mask1_681_2208" style="mask-type:luminance" maskUnits="userSpaceOnUse" x="2" y="2" width="37" height="37">
<path d="M2.03125 2.03125H38.125V38.125H2.03125V2.03125Z" fill="white"/>
</mask>
<g mask="url(#mask1_681_2208)">
<path d="M2.03125 2.03125H33.3026L38.1081 6.85703V38.1081H6.83677L2.03125 33.3026V2.03125ZM4.44808 30.8948H30.8948V4.44921H4.44808V30.8948Z" fill="#1D2520"/>
</g>
<path d="M24.3901 15.3442V19.4147H20.6404V15.3442H17.4277V27.8224H20.6404V22.6274H24.3901V27.8224H27.6027V15.3442H24.3901Z" fill="#1D2520"/>
<path d="M7.54492 7.31055V14.6297H10.7576V10.5244H12.49V19.7887H15.7027V10.5244H17.434V13.5761H20.6658V7.31055H7.54492Z" fill="#1D2520"/>
<path d="M53.4091 11.75V8.72727H71.4205V11.75H64.1591V32H60.6591V11.75H53.4091ZM77.1924 32.3864C76.0863 32.3864 75.0863 32.1818 74.1924 31.7727C73.2984 31.3561 72.5901 30.7538 72.0674 29.9659C71.5522 29.178 71.2947 28.2121 71.2947 27.0682C71.2947 26.0833 71.4841 25.2727 71.8628 24.6364C72.2416 24 72.753 23.4962 73.3969 23.125C74.0409 22.7538 74.7606 22.4735 75.556 22.2841C76.3515 22.0947 77.1621 21.9508 77.9878 21.8523C79.0333 21.7311 79.8818 21.6326 80.5333 21.5568C81.1848 21.4735 81.6583 21.3409 81.9537 21.1591C82.2492 20.9773 82.3969 20.6818 82.3969 20.2727V20.1932C82.3969 19.2008 82.1166 18.4318 81.556 17.8864C81.003 17.3409 80.1772 17.0682 79.0787 17.0682C77.9348 17.0682 77.0333 17.322 76.3742 17.8295C75.7227 18.3295 75.2719 18.8864 75.0219 19.5L71.8287 18.7727C72.2075 17.7121 72.7606 16.8561 73.4878 16.2045C74.2227 15.5455 75.0674 15.0682 76.0219 14.7727C76.9765 14.4697 77.9803 14.3182 79.0333 14.3182C79.7303 14.3182 80.4689 14.4015 81.2492 14.5682C82.0371 14.7273 82.7719 15.0227 83.4537 15.4545C84.1431 15.8864 84.7075 16.5038 85.1469 17.3068C85.5863 18.1023 85.806 19.1364 85.806 20.4091V32H82.4878V29.6136H82.3515C82.1318 30.053 81.8022 30.4848 81.3628 30.9091C80.9234 31.3333 80.3591 31.6856 79.6697 31.9659C78.9803 32.2462 78.1545 32.3864 77.1924 32.3864ZM77.931 29.6591C78.8704 29.6591 79.6734 29.4735 80.3401 29.1023C81.0144 28.7311 81.5257 28.2462 81.8742 27.6477C82.2303 27.0417 82.4083 26.3939 82.4083 25.7045V23.4545C82.2871 23.5758 82.0522 23.6894 81.7037 23.7955C81.3628 23.8939 80.9727 23.9811 80.5333 24.0568C80.0939 24.125 79.6659 24.1894 79.2492 24.25C78.8325 24.303 78.4841 24.3485 78.2037 24.3864C77.5447 24.4697 76.9424 24.6098 76.3969 24.8068C75.8591 25.0038 75.4272 25.2879 75.1015 25.6591C74.7833 26.0227 74.6242 26.5076 74.6242 27.1136C74.6242 27.9545 74.9348 28.5909 75.556 29.0227C76.1772 29.447 76.9689 29.6591 77.931 29.6591ZM93.0893 8.72727V32H89.6916V8.72727H93.0893ZM104.543 32.3523C102.823 32.3523 101.342 31.9848 100.1 31.25C98.865 30.5076 97.9105 29.4659 97.2362 28.125C96.5696 26.7765 96.2362 25.197 96.2362 23.3864C96.2362 21.5985 96.5696 20.0227 97.2362 18.6591C97.9105 17.2955 98.8499 16.2311 100.054 15.4659C101.267 14.7008 102.683 14.3182 104.304 14.3182C105.289 14.3182 106.244 14.4811 107.168 14.8068C108.092 15.1326 108.922 15.6439 109.657 16.3409C110.392 17.0379 110.971 17.9432 111.395 19.0568C111.82 20.1629 112.032 21.5076 112.032 23.0909V24.2955H98.1567V21.75H108.702C108.702 20.8561 108.52 20.0644 108.157 19.375C107.793 18.678 107.282 18.1288 106.623 17.7273C105.971 17.3258 105.206 17.125 104.327 17.125C103.373 17.125 102.539 17.3598 101.827 17.8295C101.123 18.2917 100.577 18.8977 100.191 19.6477C99.812 20.3902 99.6226 21.197 99.6226 22.0682V24.0568C99.6226 25.2235 99.8272 26.2159 100.236 27.0341C100.653 27.8523 101.232 28.4773 101.975 28.9091C102.717 29.3333 103.585 29.5455 104.577 29.5455C105.221 29.5455 105.808 29.4545 106.339 29.2727C106.869 29.0833 107.327 28.803 107.714 28.4318C108.1 28.0606 108.395 27.6023 108.6 27.0568L111.816 27.6364C111.558 28.5833 111.096 29.4129 110.429 30.125C109.77 30.8295 108.941 31.3788 107.941 31.7727C106.948 32.1591 105.816 32.3523 104.543 32.3523ZM118.559 21.6364V32H115.162V14.5455H118.423V17.3864H118.639C119.04 16.4621 119.669 15.7197 120.525 15.1591C121.389 14.5985 122.476 14.3182 123.787 14.3182C124.976 14.3182 126.018 14.5682 126.912 15.0682C127.806 15.5606 128.499 16.2955 128.991 17.2727C129.484 18.25 129.73 19.4583 129.73 20.8977V32H126.332V21.3068C126.332 20.0417 126.002 19.053 125.343 18.3409C124.684 17.6212 123.779 17.2614 122.627 17.2614C121.84 17.2614 121.139 17.4318 120.525 17.7727C119.919 18.1136 119.438 18.6136 119.082 19.2727C118.734 19.9242 118.559 20.7121 118.559 21.6364ZM141.794 14.5455V17.2727H132.26V14.5455H141.794ZM134.817 10.3636H138.215V26.875C138.215 27.5341 138.313 28.0303 138.51 28.3636C138.707 28.6894 138.961 28.9129 139.272 29.0341C139.59 29.1477 139.934 29.2045 140.306 29.2045C140.578 29.2045 140.817 29.1856 141.022 29.1477C141.226 29.1098 141.385 29.0795 141.499 29.0568L142.112 31.8636C141.916 31.9394 141.635 32.0152 141.272 32.0909C140.908 32.1742 140.453 32.2197 139.908 32.2273C139.014 32.2424 138.181 32.0833 137.408 31.75C136.635 31.4167 136.01 30.9015 135.533 30.2045C135.056 29.5076 134.817 28.6326 134.817 27.5795V10.3636ZM145.561 32V8.72727H149.072V18.8409H160.674V8.72727H164.197V32H160.674V21.8523H149.072V32H145.561ZM173.477 32.3864C172.371 32.3864 171.371 32.1818 170.477 31.7727C169.583 31.3561 168.875 30.7538 168.352 29.9659C167.837 29.178 167.58 28.2121 167.58 27.0682C167.58 26.0833 167.769 25.2727 168.148 24.6364C168.527 24 169.038 23.4962 169.682 23.125C170.326 22.7538 171.046 22.4735 171.841 22.2841C172.636 22.0947 173.447 21.9508 174.273 21.8523C175.318 21.7311 176.167 21.6326 176.818 21.5568C177.47 21.4735 177.943 21.3409 178.239 21.1591C178.534 20.9773 178.682 20.6818 178.682 20.2727V20.1932C178.682 19.2008 178.402 18.4318 177.841 17.8864C177.288 17.3409 176.462 17.0682 175.364 17.0682C174.22 17.0682 173.318 17.322 172.659 17.8295C172.008 18.3295 171.557 18.8864 171.307 19.5L168.114 18.7727C168.493 17.7121 169.046 16.8561 169.773 16.2045C170.508 15.5455 171.352 15.0682 172.307 14.7727C173.261 14.4697 174.265 14.3182 175.318 14.3182C176.015 14.3182 176.754 14.4015 177.534 14.5682C178.322 14.7273 179.057 15.0227 179.739 15.4545C180.428 15.8864 180.993 16.5038 181.432 17.3068C181.871 18.1023 182.091 19.1364 182.091 20.4091V32H178.773V29.6136H178.636C178.417 30.053 178.087 30.4848 177.648 30.9091C177.208 31.3333 176.644 31.6856 175.955 31.9659C175.265 32.2462 174.439 32.3864 173.477 32.3864ZM174.216 29.6591C175.155 29.6591 175.958 29.4735 176.625 29.1023C177.299 28.7311 177.811 28.2462 178.159 27.6477C178.515 27.0417 178.693 26.3939 178.693 25.7045V23.4545C178.572 23.5758 178.337 23.6894 177.989 23.7955C177.648 23.8939 177.258 23.9811 176.818 24.0568C176.379 24.125 175.951 24.1894 175.534 24.25C175.118 24.303 174.769 24.3485 174.489 24.3864C173.83 24.4697 173.227 24.6098 172.682 24.8068C172.144 25.0038 171.712 25.2879 171.386 25.6591C171.068 26.0227 170.909 26.5076 170.909 27.1136C170.909 27.9545 171.22 28.5909 171.841 29.0227C172.462 29.447 173.254 29.6591 174.216 29.6591ZM197.033 24.7614V14.5455H200.442V32H197.102V28.9773H196.92C196.518 29.9091 195.874 30.6856 194.988 31.3068C194.109 31.9205 193.014 32.2273 191.704 32.2273C190.583 32.2273 189.59 31.9811 188.727 31.4886C187.871 30.9886 187.196 30.25 186.704 29.2727C186.219 28.2955 185.977 27.0871 185.977 25.6477V14.5455H189.374V25.2386C189.374 26.428 189.704 27.375 190.363 28.0795C191.022 28.7841 191.878 29.1364 192.931 29.1364C193.567 29.1364 194.2 28.9773 194.829 28.6591C195.465 28.3409 195.992 27.8598 196.408 27.2159C196.833 26.572 197.041 25.7538 197.033 24.7614ZM207.766 8.72727V32H204.368V8.72727H207.766Z" fill="#1D2520"/>
<defs>
<filter id="filter0_f_681_2208" x="-5.47348" y="-34.2415" width="69.0651" height="69.0651" filterUnits="userSpaceOnUse" color-interpolation-filters="sRGB">
<feFlood flood-opacity="0" result="BackgroundImageFix"/>
<feBlend mode="normal" in="SourceGraphic" in2="BackgroundImageFix" result="shape"/>
<feGaussianBlur stdDeviation="5.58659" result="effect1_foregroundBlur_681_2208"/>
</filter>
<filter id="filter1_f_681_2208" x="-38.5057" y="-11.8983" width="70.9758" height="70.9758" filterUnits="userSpaceOnUse" color-interpolation-filters="sRGB">
<feFlood flood-opacity="0" result="BackgroundImageFix"/>
<feBlend mode="normal" in="SourceGraphic" in2="BackgroundImageFix" result="shape"/>
<feGaussianBlur stdDeviation="5.58659" result="effect1_foregroundBlur_681_2208"/>
</filter>
<filter id="filter2_f_681_2208" x="2.52506" y="3.25113" width="70.9758" height="70.9758" filterUnits="userSpaceOnUse" color-interpolation-filters="sRGB">
<feFlood flood-opacity="0" result="BackgroundImageFix"/>
<feBlend mode="normal" in="SourceGraphic" in2="BackgroundImageFix" result="shape"/>
<feGaussianBlur stdDeviation="5.58659" result="effect1_foregroundBlur_681_2208"/>
</filter>
</defs>
</svg>
